<svg width="1em" height="1em" viewBox="1.4283 5.7812 32.1164 32.1164" fill="none" xmlns="http://www.w3.org/2000/svg"
    class="text-[127px]" data-v-27aa9f53="">
    <path fill-rule="evenodd" clip-rule="evenodd"
        d="M11.5563 29.4085C10.9684 29.4129 10.6638 29.2574 10.5032 29.0967C10.3426 28.9361 10.187 28.6315 10.1914 28.0437C10.1947 27.6119 10.2864 27.0812 10.4837 26.4657C10.4899 26.4462 10.4963 26.4266 10.5027 26.407C10.5491 26.2657 10.601 26.1201 10.6586 25.9703C10.6881 25.8936 10.719 25.8159 10.7514 25.7371C11.2222 24.5938 11.9761 23.3101 12.9781 22C13.6045 21.181 14.3279 20.3516 15.1398 19.5398C15.2158 19.4638 15.2919 19.3885 15.3682 19.3141C15.85 18.8439 16.3371 18.4049 16.8235 17.9989C16.0985 17.4572 15.3891 16.9998 14.7182 16.632C14.2859 17.0134 13.8576 17.4154 13.4365 17.8365C13.3944 17.8787 13.3524 17.9209 13.3107 17.9632C12.6844 18.5972 12.1015 19.2466 11.5673 19.9011C10.9975 20.599 10.4831 21.3027 10.0304 21.9999C9.7958 22.3612 9.5778 22.7206 9.37726 23.0767C9.04303 23.67 8.75728 24.2538 8.52414 24.82C8.06869 25.9261 7.79029 27.0226 7.78276 28.0256C7.7752 29.0346 8.04604 30.046 8.79998 30.8C9.55391 31.5539 10.5654 31.8247 11.5744 31.8172C12.5774 31.8096 13.6739 31.5312 14.78 31.0758C15.4006 30.8203 16.0423 30.5015 16.6946 30.125C15.988 29.646 15.2806 29.1098 14.5832 28.5233C14.3379 28.6434 14.0974 28.7519 13.8629 28.8485C12.9313 29.2321 12.1501 29.4041 11.5563 29.4085ZM15.5011 28.0327C14.8466 27.4984 14.1973 26.9155 13.5632 26.2893C13.5209 26.2475 13.4787 26.2056 13.4366 26.1634C13.0154 25.7423 12.6134 25.3141 12.232 24.8818C12.5998 24.2108 13.0572 23.5015 13.5989 22.7764C14.0371 23.3015 14.5138 23.8272 15.0266 24.3463C15.0641 24.3843 15.1019 24.4223 15.1398 24.4602C15.9516 25.272 16.781 25.9954 17.6 26.6218C18.3136 27.1676 19.0194 27.6398 19.6989 28.0327C20.2669 28.3611 20.8166 28.6342 21.3371 28.8485C21.6559 28.9798 21.9572 29.0863 22.2393 29.1698C22.7814 29.3302 23.2531 29.4056 23.6437 29.4085C24.2316 29.4129 24.5362 29.2574 24.6968 29.0968C24.8574 28.9362 25.013 28.6315 25.0086 28.0437C25.0041 27.4498 24.8321 26.6687 24.4485 25.7371C24.352 25.5025 24.2435 25.2621 24.1234 25.0167C24.7099 24.3193 25.246 23.6119 25.725 22.9054C26.1015 23.5577 26.4203 24.1994 26.6758 24.82C27.1313 25.9261 27.4097 27.0226 27.4172 28.0256C27.4248 29.0346 27.1539 30.0461 26.4 30.8C25.6461 31.5539 24.6346 31.8248 23.6256 31.8172C22.6226 31.8097 21.5261 31.5313 20.42 31.0758C20.3988 31.0671 20.3775 31.0583 20.3562 31.0494C19.4695 30.6789 18.5407 30.1804 17.6 29.5696C16.9028 29.1169 16.199 28.6024 15.5011 28.0327ZM26.843 18.7527C27.1986 17.7926 27.4106 16.848 27.4172 15.9744C27.4247 14.9654 27.1539 13.9539 26.4 13.2C25.646 12.446 24.6346 12.1752 23.6256 12.1828C22.6226 12.1903 21.5261 12.4687 20.4199 12.9242C19.7994 13.1797 19.1577 13.4984 18.5054 13.8749C19.2119 14.354 19.9194 14.8901 20.6167 15.4766C20.8621 15.3565 21.1025 15.248 21.3371 15.1515C22.2687 14.7679 23.0498 14.5959 23.6437 14.5914C24.2315 14.587 24.5361 14.7426 24.6967 14.9032C24.8573 15.0638 25.0129 15.3684 25.0085 15.9563C25.0066 16.21 24.9741 16.498 24.9076 16.8173C24.8574 17.0584 24.7877 17.3174 24.6972 17.593C24.6271 17.8065 24.5444 18.03 24.4485 18.2629C24.2342 18.7834 23.9611 19.3331 23.6327 19.9011C23.2398 20.5806 22.7676 21.2863 22.2218 22C21.9869 22.3071 21.7384 22.6157 21.4767 22.9242C21.1058 23.3615 20.7084 23.7987 20.2859 24.2317C20.2114 24.308 20.1362 24.3842 20.0602 24.4602C19.5042 25.0162 18.9399 25.5307 18.3765 26.001C19.1015 26.5428 19.8108 27.0001 20.4818 27.368C20.9141 26.9866 21.3423 26.5845 21.7634 26.1634C21.8393 26.0875 21.9146 26.0114 21.9892 25.935C24.1563 23.7189 25.7931 21.3236 26.6758 19.18C26.6786 19.1733 26.6813 19.1666 26.6841 19.1599C26.7132 19.0888 26.7416 19.0178 26.7692 18.9468C26.7721 18.9395 26.7749 18.9322 26.7778 18.9248C26.8 18.8674 26.8218 18.81 26.843 18.7527ZM21.601 21.2235C21.1307 20.66 20.6162 20.0958 20.0602 19.5398C20.0223 19.5018 19.9843 19.4641 19.9463 19.4266C19.1709 18.6605 18.3807 17.9752 17.6 17.3781C16.8864 16.8323 16.1806 16.3601 15.5011 15.9673C14.9331 15.6388 14.3834 15.3658 13.8629 15.1515C13.4553 14.9836 13.0766 14.8563 12.7297 14.7658C12.2837 14.6494 11.8904 14.5939 11.5563 14.5914C10.9684 14.587 10.6638 14.7426 10.5032 14.9032C10.3426 15.0638 10.1871 15.3684 10.1915 15.9563C10.1959 16.5501 10.3679 17.3313 10.7515 18.2629C10.8481 18.4974 10.9565 18.7378 11.0766 18.9832C10.4901 19.6806 9.954 20.388 9.47495 21.0945C9.09845 20.4422 8.77972 19.8006 8.52419 19.18C8.06874 18.0739 7.79033 16.9774 7.78281 15.9744C7.77524 14.9654 8.04608 13.9539 8.80001 13.2C9.55394 12.446 10.5654 12.1752 11.5744 12.1828C12.498 12.1897 13.5008 12.4263 14.5174 12.8193C14.5186 12.8198 14.5198 12.8202 14.521 12.8207C14.6072 12.8541 14.6936 12.8886 14.78 12.9242C15.6859 13.2972 16.6367 13.8049 17.6 14.4303C18.2972 14.8831 19.0009 15.3975 19.6989 15.9673C20.3577 16.5051 21.0114 17.0923 21.6496 17.7233C21.6876 17.7609 21.7255 17.7986 21.7634 17.8365C22.1846 18.2576 22.5866 18.6858 22.968 19.1181C22.6001 19.7891 22.1428 20.4984 21.601 21.2235Z"
        fill="#10b981"></path>
</svg>